<?xml version="1.0" encoding="utf-8"?>
<!-- Generator: Adobe Illustrator 21.0.0, SVG Export Plug-In . SVG Version: 6.00 Build 0)  -->
<svg version="1.1" id="Calque_1" xmlns="http://www.w3.org/2000/svg" xmlns:xlink="http://www.w3.org/1999/xlink" x="0px" y="0px"
	 viewBox="0 0 99 14" style="enable-background:new 0 0 99 14;" xml:space="preserve">
<style type="text/css">
	.st0{fill:#FFFFFF;}
	.st1{fill:#006AFF;}
</style>
<path class="st0" d="M5.6,13.3c-1.1,0-2.1-0.1-3.1-0.4c-1-0.3-1.8-0.6-2.4-1l1.2-2.7c0.6,0.4,1.3,0.7,2.1,0.9
	c0.8,0.2,1.6,0.3,2.4,0.3c1.6,0,2.4-0.4,2.4-1.2c0-0.4-0.2-0.6-0.6-0.8C7,8.3,6.4,8.2,5.5,8.1C4.4,7.9,3.5,7.7,2.9,7.5
	C2.2,7.3,1.6,7,1.1,6.4C0.6,5.9,0.3,5.2,0.3,4.2C0.3,3.4,0.5,2.6,1,2c0.5-0.6,1.2-1.1,2.1-1.5C4,0.2,5.1,0,6.3,0
	C7.2,0,8.1,0.1,9,0.3c0.9,0.2,1.7,0.5,2.3,0.8L10,3.8c-1.1-0.6-2.4-1-3.7-1c-0.8,0-1.4,0.1-1.8,0.3S3.9,3.7,3.9,4
	c0,0.4,0.2,0.7,0.6,0.8C5,5,5.7,5.2,6.6,5.3c1.1,0.2,1.9,0.4,2.6,0.6c0.7,0.2,1.3,0.6,1.8,1.1c0.5,0.5,0.7,1.3,0.7,2.2
	c0,0.8-0.2,1.5-0.7,2.1c-0.5,0.6-1.2,1.1-2.1,1.5C7.9,13.1,6.9,13.3,5.6,13.3z"/>
<path class="st0" d="M20.2,13.3c-1.4,0-2.6-0.3-3.7-0.8c-1.1-0.6-1.9-1.4-2.6-2.4c-0.6-1-0.9-2.2-0.9-3.4s0.3-2.4,0.9-3.4
	c0.6-1,1.5-1.8,2.6-2.4C17.6,0.3,18.9,0,20.2,0c1.4,0,2.5,0.3,3.6,0.9c1,0.6,1.8,1.4,2.2,2.4l-2.9,1.6c-0.7-1.2-1.6-1.8-2.9-1.8
	c-1,0-1.8,0.3-2.4,1c-0.6,0.6-1,1.5-1,2.6s0.3,2,1,2.6c0.6,0.6,1.4,1,2.4,1c1.3,0,2.2-0.6,2.9-1.8L26,10c-0.5,1-1.2,1.8-2.2,2.4
	C22.8,13,21.6,13.3,20.2,13.3z"/>
<path class="st0" d="M31.8,1.9c0.4-0.6,1-1.1,1.8-1.4C34.3,0.2,35.2,0,36.2,0v3.5c-0.4,0-0.7,0-0.8,0c-1.1,0-1.9,0.3-2.5,0.9
	c-0.6,0.6-0.9,1.5-0.9,2.7v6.1h-3.7V0.2h3.6V1.9z"/>
<path class="st1" d="M51.2,6.7c0,0,0,0.4-0.1,1h-9.8c0.2,0.8,0.6,1.4,1.2,1.9c0.7,0.5,1.5,0.7,2.4,0.7c0.7,0,1.3-0.1,1.8-0.3
	c0.5-0.2,1-0.5,1.5-1l2,2.2c-1.2,1.4-3,2.1-5.3,2.1c-1.5,0-2.7-0.3-3.9-0.8c-1.1-0.6-2-1.4-2.6-2.4c-0.6-1-0.9-2.2-0.9-3.4
	c0-1.3,0.3-2.4,0.9-3.4c0.6-1,1.4-1.8,2.5-2.4C42,0.3,43.1,0,44.4,0c1.3,0,2.4,0.3,3.4,0.8s1.8,1.3,2.4,2.4
	C50.9,4.2,51.2,5.4,51.2,6.7z M44.5,2.8c-0.8,0-1.6,0.2-2.1,0.7s-0.9,1.1-1.1,2h6.4c-0.1-0.8-0.5-1.5-1.1-1.9
	C46,3.1,45.3,2.8,44.5,2.8z"/>
<path class="st1" d="M66.3,6.7c0,0,0,0.4-0.1,1h-9.8c0.2,0.8,0.6,1.4,1.2,1.9c0.7,0.5,1.5,0.7,2.4,0.7c0.7,0,1.3-0.1,1.8-0.3
	c0.5-0.2,1-0.5,1.5-1l2,2.2c-1.2,1.4-3,2.1-5.3,2.1c-1.5,0-2.7-0.3-3.9-0.8c-1.1-0.6-2-1.4-2.6-2.4c-0.6-1-0.9-2.2-0.9-3.4
	c0-1.3,0.3-2.4,0.9-3.4c0.6-1,1.4-1.8,2.5-2.4C57.1,0.3,58.3,0,59.6,0C60.8,0,62,0.3,63,0.8c1,0.5,1.8,1.3,2.4,2.4
	C66,4.2,66.3,5.4,66.3,6.7z M59.6,2.8c-0.8,0-1.6,0.2-2.1,0.7s-0.9,1.1-1.1,2h6.4c-0.1-0.8-0.5-1.5-1.1-1.9
	C61.1,3.1,60.4,2.8,59.6,2.8z"/>
<path class="st0" d="M76.6,0c1.6,0,2.9,0.5,3.9,1.4c1,1,1.5,2.4,1.5,4.3v7.4h-3.7V6.3c0-1-0.2-1.8-0.7-2.3c-0.4-0.5-1.1-0.8-1.9-0.8
	c-0.9,0-1.7,0.3-2.3,0.9c-0.6,0.6-0.8,1.4-0.8,2.6v6.4h-3.7V0.2h3.6v1.5c0.5-0.5,1.1-1,1.8-1.2C75,0.2,75.8,0,76.6,0z"/>
<path class="st0" d="M91.7,13.3c-1.4,0-2.6-0.3-3.7-0.8c-1.1-0.6-1.9-1.4-2.5-2.4s-0.9-2.2-0.9-3.4s0.3-2.4,0.9-3.4s1.4-1.8,2.5-2.4
	C89.1,0.3,90.3,0,91.7,0s2.6,0.3,3.6,0.9c1.1,0.6,1.9,1.3,2.5,2.4s0.9,2.2,0.9,3.4s-0.3,2.4-0.9,3.4s-1.4,1.8-2.5,2.4
	C94.2,13,93,13.3,91.7,13.3z M91.7,10.2c1,0,1.7-0.3,2.4-1C94.6,8.6,95,7.7,95,6.6s-0.3-2-0.9-2.6c-0.6-0.7-1.4-1-2.4-1
	s-1.8,0.3-2.4,1c-0.6,0.6-0.9,1.5-0.9,2.6s0.3,2,0.9,2.6C89.9,9.9,90.7,10.2,91.7,10.2z"/>
</svg>
